<?xml version="1.0" standalone="no"?>
<!DOCTYPE svg PUBLIC "-//W3C//DTD SVG 20010904//EN"
 "http://www.w3.org/TR/2001/REC-SVG-20010904/DTD/svg10.dtd">
<svg version="1.0" xmlns="http://www.w3.org/2000/svg"
 width="581.000000pt" height="297.000000pt" viewBox="0 0 581.000000 297.000000"
 preserveAspectRatio="xMidYMid meet">
<g transform="translate(0.000000,397.000000) scale(0.100000,-0.100000)"
fill="#ffffff" stroke="none">
<path d="M810 3540 c-28 -28 -23 -71 8 -85 20 -8 23 -15 19 -45 -3 -19 -17
-118 -31 -220 -15 -102 -30 -205 -34 -228 l-7 -44 -34 49 c-19 26 -64 96 -101
154 -53 83 -66 111 -63 135 5 34 -24 68 -54 62 -28 -5 -25 -69 4 -84 13 -6 21
-13 19 -15 -5 -4 -19 -92 -52 -306 -9 -62 -20 -113 -23 -113 -4 0 -15 16 -25
35 -11 19 -41 65 -68 102 -36 50 -48 75 -44 93 2 14 0 33 -5 42 -11 20 -54 24
-64 7 -12 -18 4 -55 28 -66 25 -12 32 -51 73 -397 21 -184 23 -190 74 -182 38
6 39 5 30 -16 -15 -34 -36 -148 -34 -183 4 -67 54 -160 125 -234 66 -67 122
-91 214 -91 74 0 164 47 215 112 35 44 70 122 59 132 -2 2 -38 7 -79 11 l-75
7 -18 -45 c-26 -64 -69 -81 -132 -51 -38 18 -50 43 -64 137 -12 80 -5 135 20
162 10 11 17 24 16 30 -3 14 74 55 103 55 14 0 35 -3 48 -6 23 -6 22 -7 -8
-25 -55 -34 -66 -102 -25 -155 36 -47 86 -59 141 -35 52 23 73 54 80 117 6 45
-3 80 -33 135 -2 4 29 10 69 13 40 4 91 9 112 13 l40 5 -57 -62 c-31 -34 -56
-65 -55 -69 1 -3 -4 -26 -11 -51 -28 -97 11 -241 87 -322 26 -28 72 -62 109
-80 57 -28 74 -31 141 -30 59 1 87 7 128 27 68 33 147 105 182 164 23 40 27
59 30 146 3 83 0 109 -17 155 -24 63 -71 117 -122 142 l-34 16 34 8 33 7 -7
126 c-8 151 -39 377 -66 484 -18 72 -18 79 -3 102 36 56 -26 116 -68 65 -22
-27 -23 -48 -3 -71 15 -15 10 -28 -49 -150 l-64 -133 -10 35 c-5 19 -25 70
-45 114 -72 160 -90 215 -76 231 9 11 9 21 1 39 -14 30 -42 32 -67 5 -18 -20
-18 -21 2 -48 l20 -27 -24 -80 c-30 -100 -53 -207 -53 -246 0 -16 -3 -29 -8
-29 -4 0 -29 42 -56 93 -54 103 -94 169 -178 289 -56 81 -56 81 -35 98 18 15
19 22 11 51 -8 28 -15 35 -41 37 -22 2 -38 -3 -53 -18z m124 -205 c76 -114
124 -195 177 -300 31 -60 60 -108 65 -105 5 3 8 25 7 50 -3 75 70 372 87 353
4 -4 15 -32 25 -62 10 -29 35 -91 56 -137 21 -46 44 -104 50 -129 6 -25 17
-45 23 -45 6 0 18 21 25 46 18 59 102 226 117 231 34 11 119 -599 90 -645 -3
-6 -32 -14 -64 -17 -31 -4 -100 -13 -152 -20 -52 -8 -122 -15 -155 -16 -33 -1
-94 -5 -135 -10 -88 -9 -283 -27 -390 -35 -41 -3 -137 -14 -214 -24 -76 -11
-142 -18 -146 -15 -4 2 -12 44 -19 92 -32 245 -51 406 -48 409 1 2 32 -44 67
-101 36 -57 68 -104 71 -105 4 0 9 17 12 38 11 90 59 398 63 411 2 7 27 -23
57 -70 107 -170 162 -248 172 -245 6 1 11 25 13 52 2 51 60 458 69 484 5 17
18 2 77 -85z m516 -810 c-7 -8 -16 -13 -20 -10 -10 6 -45 -33 -37 -41 10 -10
38 17 30 29 -3 5 -2 7 4 4 5 -3 24 3 42 14 32 19 32 19 21 -1 -6 -11 -14 -19
-18 -17 -14 4 -83 -51 -119 -96 -7 -8 -16 -17 -20 -19 -4 -2 -33 -30 -63 -63
-52 -56 -41 -50 40 23 19 17 35 30 35 29 5 -14 -9 -137 -15 -137 -5 0 -33 -23
-61 -50 -29 -28 -45 -48 -34 -44 14 6 16 4 10 -7 -4 -8 -6 -12 -2 -9 3 3 5 8
4 12 -2 9 74 88 85 88 15 0 8 -26 -12 -43 -11 -9 -20 -14 -20 -11 0 4 -7 1
-15 -6 -9 -7 -13 -15 -10 -18 3 -3 -11 -23 -32 -44 -20 -21 -34 -40 -31 -44 4
-3 34 23 67 58 39 40 61 57 61 46 0 -9 -26 -42 -57 -72 -32 -31 -52 -56 -45
-56 7 0 32 20 56 45 24 24 46 42 49 38 3 -3 -19 -29 -48 -59 -63 -62 -74 -62
-116 4 l-28 45 21 19 c11 10 25 18 30 18 5 0 7 4 4 9 -3 5 22 34 56 64 35 31
60 58 57 61 -3 3 -43 -31 -89 -76 l-84 -83 -15 47 -14 47 28 23 c65 51 62 49
40 42 -11 -4 -30 -16 -42 -27 -28 -25 -32 -4 -6 25 16 18 16 18 0 12 -26 -9
-21 16 9 47 14 14 27 35 28 45 2 11 11 21 22 23 10 2 39 20 63 40 24 20 58 47
75 60 l31 25 -29 -32 c-17 -18 -26 -32 -21 -32 5 0 -7 -17 -26 -37 -27 -30
-28 -33 -5 -13 29 25 29 25 23 3 -3 -13 -2 -23 1 -23 14 1 85 70 72 70 -7 0
-21 -7 -31 -16 -10 -9 -24 -14 -31 -12 -8 3 -1 11 17 20 17 9 42 29 57 45 29
30 81 46 58 18z m204 -3 c2 -4 -11 -24 -30 -44 -19 -21 -34 -32 -34 -26 0 7
-7 3 -15 -8 -19 -25 -19 -40 0 -24 8 7 15 9 15 4 0 -4 12 3 28 17 15 13 9 4
-13 -20 -55 -60 -28 -48 41 19 36 34 55 48 53 36 -2 -10 -13 -24 -24 -30 -11
-6 -24 -17 -28 -24 -5 -7 -22 -29 -39 -48 -53 -60 -25 -46 46 22 63 62 68 65
81 47 29 -39 28 -64 -6 -99 -48 -49 -57 -42 -13 11 20 25 33 45 30 45 -9 0
-68 -67 -82 -93 -8 -13 -13 -16 -16 -7 -2 7 15 33 39 59 24 25 43 54 43 65 0
13 -22 -1 -81 -54 -44 -40 -79 -69 -77 -64 1 5 -3 19 -10 30 -6 12 -8 24 -5
28 4 3 1 17 -6 30 -11 21 -10 27 9 49 13 15 26 24 30 22 3 -2 14 12 25 31 18
33 29 41 39 26z m-898 -55 c-70 -44 -94 -77 -102 -135 -2 -20 -8 -38 -12 -40
-4 -1 -32 -25 -62 -52 -44 -40 -49 -49 -30 -44 14 3 30 6 36 8 19 3 44 27 39
36 -3 4 2 13 10 20 13 10 15 9 15 -9 0 -11 -4 -21 -10 -21 -5 0 -10 -5 -10
-11 0 -6 7 -9 15 -5 8 3 15 1 15 -3 0 -11 -29 -23 -40 -16 -4 3 -14 -3 -21
-12 -12 -14 -11 -15 8 -9 12 4 24 3 27 -3 8 -12 -72 -83 -84 -76 -6 4 -10 -3
-10 -15 0 -22 3 -21 60 17 20 13 18 9 -8 -19 -28 -30 -31 -36 -17 -42 9 -3 13
-10 10 -16 -9 -15 1 -12 37 10 17 10 33 26 34 35 2 12 -6 10 -32 -10 -19 -14
-34 -22 -34 -17 0 15 52 47 78 47 12 1 22 -3 22 -7 0 -4 -4 -8 -8 -8 -5 0 -9
-7 -9 -15 0 -18 6 -19 26 -2 13 12 23 11 60 -3 l43 -17 -30 -12 c-35 -15 -79
-58 -69 -68 4 -3 17 3 30 14 35 32 54 39 28 10 -14 -15 -20 -27 -15 -27 6 0
24 15 40 33 46 49 142 126 158 127 6 0 -17 -26 -50 -59 -144 -142 -132 -148
17 -8 48 44 47 31 -1 -20 l-45 -46 63 48 c34 26 64 46 67 43 8 -7 -120 -117
-150 -128 -48 -18 -195 -10 -195 11 0 5 21 30 48 56 26 25 38 42 27 38 -11 -4
-33 -9 -48 -10 -28 -3 -67 -30 -67 -47 0 -5 15 0 34 11 48 30 55 26 16 -9 -18
-16 -37 -30 -40 -30 -10 0 -115 112 -128 136 -9 18 -9 24 3 34 13 11 14 10 10
-3 -8 -20 12 -32 30 -17 8 6 18 9 23 6 5 -3 24 8 43 24 19 16 29 29 23 30 -6
0 -23 -11 -37 -24 -16 -14 -29 -20 -33 -15 -3 6 -13 8 -21 5 -9 -4 -11 -2 -6
7 26 42 2 56 -30 17 l-26 -30 -10 33 c-14 46 -17 70 -8 85 5 7 3 12 -4 12 -8
0 -9 3 0 13 6 8 9 17 6 20 -3 4 -2 5 1 2 4 -2 39 27 79 66 81 79 121 109 149
109 15 0 16 -3 6 -14 -6 -8 -17 -13 -24 -10 -8 3 -38 -18 -67 -46 l-54 -52 51
36 c28 19 54 33 57 29 4 -3 25 11 47 31 22 20 48 36 58 35 15 0 15 -1 -2 -12z
m738 -23 c55 -55 72 -162 51 -321 -15 -111 -122 -137 -168 -41 -41 87 -29 307
19 355 27 27 75 30 98 7z"/>
<path d="M801 2734 c-12 -15 -21 -37 -21 -50 0 -33 34 -64 70 -64 17 0 39 9
50 20 11 11 20 33 20 50 0 65 -79 94 -119 44z"/>
<path d="M5230 2790 c-11 -14 -22 -18 -42 -13 -15 3 -25 9 -22 14 3 5 -1 9 -8
9 -8 0 -14 -14 -15 -35 -1 -20 -7 -51 -13 -70 -14 -42 -113 -145 -140 -145
-18 0 -20 -7 -20 -59 l0 -60 43 -3 42 -3 1 -165 c0 -225 23 -304 100 -349 39
-23 87 -26 166 -10 131 27 173 83 173 234 l0 90 -51 3 -52 3 0 -65 c0 -63 -22
-126 -43 -126 -5 0 -19 8 -29 18 -22 21 -25 60 -21 259 l2 112 77 3 77 3 3 48
c4 62 -10 81 -55 72 -18 -3 -49 -3 -68 1 l-35 6 -1 92 c-2 118 -9 150 -34 153
-11 2 -27 -6 -35 -17z m57 -121 c3 -67 10 -117 17 -121 6 -4 26 -8 45 -8 l34
0 -53 -50 c-29 -27 -57 -50 -61 -50 -17 0 -8 19 19 40 l27 22 -27 -16 c-41
-24 -45 -19 -13 14 16 17 24 30 18 30 -11 0 -49 -50 -46 -61 1 -3 -5 -6 -13
-6 -9 0 -13 6 -9 16 3 9 -11 -2 -29 -24 -19 -22 -50 -54 -70 -70 -23 -21 -32
-35 -27 -44 10 -16 47 4 103 58 59 55 56 28 -3 -31 -29 -29 -47 -45 -40 -35 7
9 11 17 7 17 -12 0 -51 -45 -53 -63 -3 -17 -1 -17 25 2 16 11 35 27 42 35 7 9
16 13 21 10 5 -3 6 1 4 8 -6 15 37 61 59 64 10 1 15 -12 18 -43 3 -44 1 -47
-43 -85 -26 -21 -46 -47 -45 -56 0 -9 -4 -16 -11 -15 -14 3 -77 -66 -68 -75 3
-3 28 16 55 43 36 36 46 51 37 58 -8 6 -7 7 5 3 12 -4 25 5 40 25 l23 31 6
-109 c3 -59 9 -119 14 -132 5 -14 4 -22 -1 -18 -14 8 -47 -20 -39 -33 4 -7 -5
-25 -21 -41 -15 -16 -25 -31 -22 -34 7 -8 59 35 53 44 -2 4 9 21 25 36 22 21
33 26 41 18 7 -7 -2 -25 -33 -61 -47 -54 -60 -61 -98 -52 -38 9 -32 38 22 99
50 57 59 74 33 65 -8 -4 -15 -13 -15 -21 0 -8 -5 -11 -10 -8 -6 4 -9 2 -8 -4
4 -14 -65 -101 -77 -97 -5 2 -9 11 -9 20 1 9 -5 16 -12 16 -8 0 -20 11 -26 25
-9 21 -8 28 7 45 10 11 13 20 7 20 -6 0 -12 -6 -15 -12 -2 -7 -8 -10 -12 -5
-5 4 2 19 16 33 l24 26 -27 -7 -28 -7 0 65 c0 37 5 69 11 73 8 4 7 9 -2 15
-10 6 -9 12 5 28 17 19 17 21 3 21 -20 0 -22 21 -5 38 9 9 9 12 0 12 -17 0
-15 45 3 60 20 17 19 25 -5 28 -11 1 -29 3 -40 4 -13 2 -16 6 -10 12 22 22 8
28 -15 6 -21 -19 -25 -21 -30 -7 -4 8 -5 30 -3 49 2 27 8 34 28 36 14 2 34 11
46 20 11 10 2 0 -19 -21 -45 -42 -45 -59 -1 -25 60 46 194 171 189 176 -3 3
-23 -12 -45 -33 -22 -22 -40 -35 -40 -31 0 5 28 35 63 68 34 32 53 55 42 51
-19 -6 -19 -6 -2 14 9 11 17 26 17 33 0 10 3 11 11 3 6 -6 13 -62 16 -124z"/>
<path d="M2935 2793 c-16 -3 -23 -17 -32 -64 -17 -90 -53 -138 -156 -204 -9
-5 -17 -26 -19 -45 -3 -34 -2 -35 35 -38 20 -2 38 -6 38 -10 8 -47 7 -77 -2
-88 -7 -9 -7 -14 -2 -14 6 0 11 -40 12 -97 0 -54 3 -107 5 -118 18 -84 27
-111 51 -145 52 -76 194 -106 282 -61 77 39 112 106 120 228 6 80 5 83 -18 91
-13 5 -43 7 -65 4 l-42 -4 -7 -54 c-3 -29 -11 -56 -16 -60 -5 -3 -7 -10 -3
-15 7 -12 -15 -69 -27 -69 -5 0 -15 10 -23 23 -11 17 -14 60 -14 183 0 88 4
167 8 175 7 10 26 13 74 11 39 -2 67 1 71 8 9 14 10 98 2 106 -3 3 -36 13 -74
20 -37 8 -70 20 -74 26 -4 6 -7 31 -7 56 0 24 -3 46 -6 50 -3 3 -6 -6 -6 -20
0 -14 -9 -33 -20 -43 -11 -10 -20 -23 -20 -30 0 -6 -11 -22 -25 -35 -21 -20
-27 -21 -42 -9 -14 12 -16 12 -8 0 5 -9 4 -12 -2 -8 -6 4 -17 -1 -24 -10 -12
-15 -12 -16 5 -10 21 8 17 2 -29 -52 -19 -24 -19 -23 16 2 20 15 40 27 44 27
5 0 18 8 29 19 12 10 35 26 51 36 41 25 -63 -83 -127 -133 -26 -19 -46 -38
-43 -40 7 -7 44 21 110 82 33 31 64 56 69 56 5 0 17 7 27 16 10 9 24 14 31 11
7 -2 -9 -15 -37 -28 -27 -13 -50 -29 -51 -34 -2 -25 -20 -46 -74 -90 -33 -26
-57 -52 -54 -56 3 -5 1 -9 -5 -9 -5 0 -16 -2 -24 -6 -11 -4 -14 6 -11 55 3 42
-1 64 -11 74 -8 8 -11 17 -8 21 14 14 -12 5 -28 -10 -10 -9 -23 -13 -28 -9
-16 9 -13 28 3 22 8 -3 26 3 40 14 20 16 24 17 20 5 -11 -28 6 -18 63 39 34
33 59 51 63 45 4 -7 20 3 39 25 18 21 29 40 26 44 -4 3 -20 -10 -36 -29 -16
-19 -29 -31 -29 -26 0 4 17 28 37 53 35 42 58 92 30 64 -23 -23 -29 -10 -6 15
21 22 21 24 4 19 -20 -7 -20 -6 -1 9 11 9 14 16 8 16 -7 0 -12 5 -12 11 0 7
10 9 25 7 14 -3 28 -1 31 3 5 9 -81 10 -121 2z m99 -450 c-1 -20 -6 -27 -18
-25 -9 2 -16 -2 -16 -8 0 -6 -5 -8 -10 -5 -6 4 -9 3 -8 -2 3 -10 -50 -64 -107
-110 -59 -46 -38 -49 26 -3 29 22 59 39 64 40 19 0 -92 -96 -113 -97 -17 -1
-21 6 -27 47 -4 27 -4 54 0 60 4 7 31 27 61 46 54 35 74 55 32 33 -21 -11 -22
-11 -9 5 8 9 20 15 28 12 8 -3 25 1 39 10 13 9 24 13 24 8 0 -4 5 -3 12 4 18
18 24 15 22 -15z m6 -137 c0 -38 -4 -56 -14 -59 -8 -3 -20 -16 -27 -29 -12
-22 -11 -23 8 -5 27 24 33 22 33 -14 0 -25 -10 -40 -45 -71 -25 -22 -44 -43
-41 -45 3 -3 24 11 47 31 l42 36 24 -26 c24 -26 30 -40 14 -29 -6 3 -29 -13
-53 -35 -50 -46 -78 -54 -52 -15 9 14 21 22 28 18 6 -3 8 -2 3 2 -4 5 5 21 20
37 49 51 5 29 -49 -24 -29 -29 -47 -46 -40 -37 15 20 4 33 -15 17 -11 -9 -19
-7 -34 9 l-21 20 36 22 c39 24 47 34 19 24 -16 -6 -15 -3 2 17 l20 24 -26 -20
c-18 -12 -23 -21 -15 -26 12 -8 12 -8 -22 -12 -26 -3 -42 25 -42 74 0 21 6 29
23 33 12 4 54 35 92 71 39 36 73 65 78 66 4 0 7 -24 7 -54z m213 -29 c10 -41
2 -107 -13 -107 -5 0 -7 -6 -4 -14 3 -8 -1 -27 -10 -43 -8 -15 -15 -23 -16
-18 -1 26 -48 7 -101 -42 -50 -47 -79 -64 -79 -48 0 3 32 38 72 78 40 40 71
76 70 80 -1 5 1 6 6 3 5 -3 9 2 9 11 0 11 -16 -1 -44 -31 -23 -26 -43 -44 -43
-38 0 5 18 30 41 56 22 25 37 46 32 46 -5 0 -14 -5 -21 -12 -9 -9 -12 -8 -12
4 0 9 20 34 45 56 54 47 61 66 8 23 -45 -38 -55 -33 -17 8 39 41 66 37 77 -12z"/>
<path d="M2287 2560 c-31 -10 -73 -30 -92 -44 l-35 -27 0 31 c0 17 -6 33 -12
35 -7 3 -79 6 -160 7 l-147 3 -5 -29 c-14 -70 -9 -83 38 -95 32 -8 45 -17 50
-33 3 -13 6 -91 6 -175 0 -170 -5 -183 -66 -183 l-34 0 0 -59 c0 -44 4 -60 16
-65 20 -8 227 -6 314 3 l65 6 3 50 c2 46 0 51 -27 67 -41 23 -47 64 -31 220
11 118 15 130 38 148 34 27 95 27 121 -1 35 -38 44 -98 34 -226 -10 -121 -12
-125 -68 -158 -13 -8 -15 -19 -10 -61 l7 -51 191 3 c104 2 192 5 194 7 2 2 1
29 -3 60 -7 55 -7 56 -42 59 -31 3 -37 7 -44 35 -4 17 -4 73 0 125 16 180 -23
295 -119 345 -51 28 -103 29 -182 3z m173 -12 l24 -9 -29 -24 c-48 -39 -114
-77 -125 -70 -11 7 26 41 80 74 21 12 28 21 18 21 -9 0 -29 -10 -45 -23 -64
-52 -122 -77 -92 -40 24 29 -123 -56 -171 -99 l-45 -41 44 31 c50 36 71 33 26
-2 -63 -50 -78 -66 -32 -36 l47 31 0 -39 c0 -57 -11 -102 -25 -102 -6 0 -22
-12 -36 -27 l-24 -27 32 22 c38 27 42 27 36 4 -2 -10 -17 -24 -34 -31 -16 -7
-29 -17 -29 -22 0 -5 13 -3 30 6 36 19 40 19 40 1 0 -18 -53 -57 -83 -61 -12
-1 -39 -10 -60 -19 -25 -11 -36 -13 -31 -5 4 7 -14 -4 -41 -24 -54 -42 -83
-51 -36 -12 32 28 56 85 48 116 -3 12 2 23 14 29 10 6 19 16 19 22 0 7 -5 6
-15 -2 -31 -26 -26 0 7 30 29 29 30 30 6 16 -15 -9 -30 -16 -34 -16 -15 0 9
74 29 91 12 10 17 18 12 19 -6 0 -16 -5 -23 -12 -9 -9 -12 -8 -12 5 0 9 3 17
8 17 4 0 21 12 37 26 l30 26 -37 -21 -38 -20 -6 25 c-4 14 -2 30 5 37 16 16
14 27 -4 21 -8 -4 -15 -1 -15 5 0 6 -8 11 -17 11 -14 0 -11 6 12 24 16 13 36
21 44 18 10 -4 12 -1 6 8 -5 9 -4 11 3 6 7 -4 29 5 49 19 21 14 47 25 58 24
18 0 18 -1 -4 -17 -14 -9 -34 -25 -45 -35 -16 -14 -11 -13 19 4 22 12 44 26
50 31 12 11 35 10 35 -1 0 -5 -8 -12 -17 -16 -10 -3 -36 -22 -58 -42 -37 -33
-38 -34 -5 -11 57 41 80 51 80 36 0 -7 -19 -23 -41 -36 -22 -13 -38 -26 -35
-29 3 -3 21 5 41 17 20 12 39 19 43 15 4 -4 1 -10 -6 -12 -7 -3 -25 -16 -40
-30 l-27 -24 50 24 c28 14 86 50 130 80 71 49 85 55 130 54 28 0 61 -4 75 -9z
m107 -145 c4 -16 8 -74 8 -129 0 -84 -3 -105 -18 -122 -10 -10 -64 -43 -120
-72 -56 -28 -106 -56 -112 -61 -11 -11 -25 -12 -25 -1 0 4 13 13 28 20 16 7
44 26 63 43 19 17 58 44 86 60 49 28 73 49 57 49 -10 0 -98 -51 -104 -61 -7
-10 -52 12 -54 26 0 5 20 21 47 36 26 14 44 29 40 34 -5 4 0 5 10 2 10 -4 16
-3 12 2 -3 5 13 20 35 32 22 13 40 26 40 31 0 13 -9 9 -44 -17 -18 -14 -36
-22 -39 -18 -4 3 -7 2 -7 -4 0 -9 -72 -63 -85 -63 -17 0 -1 28 23 38 30 14
117 73 141 97 22 21 -1 19 -25 -3 -32 -30 -136 -94 -142 -87 -9 9 43 50 117
92 36 20 60 38 54 40 -6 2 -43 -17 -83 -42 -39 -26 -74 -44 -77 -41 -10 10 40
53 107 90 36 20 60 36 53 36 -14 0 -91 -40 -131 -69 -39 -27 -52 -27 -23 0 27
25 131 87 148 88 7 1 16 -11 20 -26z"/>
<path d="M3583 2560 c-4 -4 -27 -12 -50 -19 -58 -16 -145 -98 -180 -169 -24
-50 -28 -68 -28 -154 0 -53 2 -94 4 -92 2 2 20 -29 40 -69 35 -71 37 -73 116
-112 78 -39 83 -40 185 -40 127 0 171 17 256 97 105 99 101 133 -14 130 -71
-2 -84 -9 -102 -52 -13 -32 -63 -60 -108 -60 -49 0 -95 39 -113 95 -9 28 -15
53 -13 56 2 3 81 5 176 3 95 -1 193 1 218 4 l45 7 0 51 c-1 39 -10 70 -37 125
-75 151 -148 201 -300 204 -48 1 -91 -1 -95 -5z m245 -42 c25 -13 59 -40 75
-60 25 -31 28 -40 17 -53 -7 -8 -17 -12 -22 -9 -11 7 -58 -34 -58 -50 0 -5 14
3 30 19 17 17 30 23 30 15 0 -10 5 -9 19 4 18 17 20 15 51 -48 27 -55 31 -68
20 -81 -21 -26 -47 -36 -47 -20 0 8 3 12 7 10 4 -3 16 5 26 17 19 20 19 21 -6
13 -14 -4 -29 -14 -35 -22 -40 -60 -45 -63 -101 -61 -44 2 -52 5 -40 14 9 6
16 14 16 18 0 4 -13 -2 -29 -13 -30 -22 -67 -29 -56 -11 3 6 2 10 -4 10 -5 0
-13 -4 -16 -10 -3 -5 -13 -10 -21 -10 -21 0 3 32 100 135 42 44 76 84 76 88 0
5 4 6 9 2 14 -8 25 15 14 26 -7 7 -26 -6 -54 -35 -24 -25 -47 -46 -51 -46 -15
0 -8 27 12 45 11 10 20 23 20 28 0 6 -11 0 -25 -13 -41 -38 -28 -8 15 37 33
34 37 42 24 47 -9 4 -19 4 -22 1 -3 -3 0 -5 7 -5 6 0 -5 -18 -25 -39 -31 -34
-39 -38 -55 -28 -10 6 -19 15 -19 20 0 4 4 5 10 2 14 -8 50 13 47 28 -1 7 3
11 8 10 6 -1 11 8 12 20 1 19 -4 16 -33 -17 -35 -40 -42 -41 -23 -3 8 15 1 12
-19 -10 -17 -18 -38 -33 -46 -33 -8 0 -27 -11 -43 -24 -15 -12 -33 -21 -39
-19 -6 2 -21 -13 -34 -33 -14 -25 -16 -33 -6 -25 23 19 22 -6 -1 -33 -17 -20
-17 -20 0 -7 14 11 17 11 17 0 0 -11 17 -14 76 -12 71 1 75 0 60 -16 -29 -32
-17 -35 17 -5 l32 29 -29 -32 c-16 -18 -33 -30 -38 -27 -5 3 -18 -6 -29 -20
-11 -14 -25 -26 -31 -26 -7 0 -1 12 13 27 l24 27 -30 -22 c-66 -48 -67 -49
-60 -80 3 -18 2 -33 -4 -37 -6 -3 -11 -11 -11 -17 0 -7 6 -6 15 2 12 10 15 9
15 -6 0 -10 -12 -29 -27 -42 -16 -13 -22 -21 -15 -17 6 3 12 0 12 -7 1 -7 9
-3 21 11 26 31 35 20 13 -16 -28 -45 -56 -73 -73 -73 -11 1 -5 10 17 29 19 16
29 31 24 35 -5 3 -22 -8 -37 -24 -29 -31 -49 -32 -38 -2 6 15 5 15 -10 3 -15
-12 -20 -11 -37 4 -16 14 -17 21 -8 39 10 19 9 20 -5 8 -13 -11 -17 -10 -26 6
-8 15 -7 23 4 32 8 7 15 17 15 22 0 6 -7 5 -15 -2 -21 -18 -32 -3 -16 21 11
18 10 20 -6 15 -13 -4 -19 -1 -20 12 0 9 -3 32 -6 51 -4 21 0 42 9 57 9 12 14
26 12 29 -2 3 8 18 22 32 27 29 8 22 -27 -10 -13 -11 -23 -18 -23 -14 0 9 85
121 105 137 9 7 21 23 26 34 6 12 -17 -8 -51 -44 -42 -45 -56 -56 -46 -35 48
95 138 152 255 161 24 1 45 5 47 7 10 9 110 -14 152 -35z m-97 -108 c24 -23
30 -37 27 -62 l-3 -33 -84 3 c-46 1 -86 4 -89 7 -10 9 22 66 50 90 39 33 63
31 99 -5z m170 -310 c-25 -22 -46 -27 -35 -9 4 7 2 10 -5 8 -7 -3 -12 -9 -12
-14 0 -6 -8 -18 -16 -27 -9 -10 -13 -18 -10 -18 8 0 78 45 100 65 12 11 27 15
43 11 31 -8 30 -17 -2 -47 l-26 -24 8 29 c5 21 4 27 -5 22 -6 -4 -11 -13 -11
-20 0 -7 -9 -21 -21 -32 -12 -10 -27 -31 -35 -46 -14 -28 -60 -65 -69 -56 -3
3 22 33 55 68 62 67 74 96 17 43 -32 -30 -45 -41 -82 -69 -19 -14 -19 -14 4
-3 l25 12 -25 -31 c-26 -33 -33 -37 -94 -47 l-40 -7 23 24 c12 14 20 27 17 30
-6 6 21 29 91 78 26 17 41 36 40 47 -1 12 6 18 21 18 12 0 25 4 29 8 4 4 14 7
23 7 12 -1 10 -6 -8 -20z"/>
<path d="M4093 2553 c-17 -3 -22 -13 -25 -51 -6 -63 -1 -72 37 -72 19 0 39 -8
50 -20 17 -18 18 -34 12 -183 -10 -223 -5 -209 -69 -192 l-28 7 0 -66 c0 -63
1 -67 27 -77 31 -11 245 -12 308 -1 l40 7 3 63 c3 58 1 63 -22 72 -31 12 -41
69 -32 184 13 162 29 188 114 194 57 4 61 3 79 -24 15 -23 17 -44 15 -114 -1
-47 -8 -116 -15 -155 -11 -65 -14 -71 -47 -87 -33 -17 -34 -20 -34 -73 0 -30
3 -57 6 -61 9 -8 27 -8 213 4 87 6 162 9 166 6 4 -2 15 -1 24 2 12 5 16 17 14
48 -4 62 -7 66 -54 66 -31 0 -45 5 -49 17 -4 9 -4 76 0 148 11 221 -7 285 -94
333 -53 29 -144 39 -198 22 -21 -7 -60 -26 -86 -41 -27 -16 -51 -29 -55 -29
-3 0 -3 14 1 30 3 17 2 30 -2 31 -4 0 -59 2 -122 3 -63 2 -124 5 -135 8 -11 3
-30 3 -42 1z m633 -34 c25 -12 51 -33 59 -49 14 -27 14 -29 -13 -38 -24 -8
-91 -62 -78 -62 3 0 26 14 52 31 37 26 48 29 55 18 17 -28 10 -58 -19 -73 -15
-8 -36 -24 -47 -36 -18 -20 -15 -20 22 4 39 26 63 28 63 6 0 -6 -28 -30 -62
-55 -34 -25 -58 -45 -53 -45 6 -1 -3 -12 -20 -26 l-30 -26 33 18 c18 11 42 27
52 36 10 9 20 14 23 11 11 -10 -48 -74 -100 -109 -29 -19 -53 -37 -53 -39 0
-6 68 34 121 72 26 18 51 33 58 33 6 0 11 7 11 15 0 8 -4 15 -9 15 -5 0 -8 11
-7 24 0 13 3 23 5 20 2 -2 10 4 17 14 11 14 13 5 8 -58 -3 -41 -10 -79 -16
-85 -7 -7 -9 -6 -5 1 4 7 -1 14 -11 16 -17 5 -146 -81 -137 -91 3 -2 12 2 21
9 13 12 17 11 25 -1 13 -21 11 -27 -11 -39 -14 -7 -20 -7 -20 0 0 17 -25 11
-54 -11 -15 -12 -30 -19 -33 -15 -9 9 -44 -14 -38 -25 4 -5 1 -9 -4 -9 -6 0
-11 9 -11 19 0 19 55 55 69 46 4 -2 8 12 9 32 2 19 10 46 19 59 14 22 14 24 0
18 -12 -4 -14 -1 -10 15 3 11 14 23 24 26 11 4 17 11 14 16 -3 5 7 17 24 26
16 10 51 31 76 46 71 42 50 40 -40 -4 -44 -21 -74 -39 -66 -39 11 0 11 -3 1
-15 -7 -8 -15 -15 -19 -15 -3 0 -5 38 -3 86 3 66 0 91 -13 110 -14 22 -14 25
0 30 8 3 13 9 11 13 -3 4 18 19 45 35 28 15 48 30 45 33 -5 6 -69 -30 -101
-57 -14 -12 -32 -16 -63 -12 -43 4 -43 4 -25 25 10 11 -10 2 -43 -21 -77 -52
-84 -70 -91 -237 -3 -75 -11 -137 -18 -147 -12 -18 -55 -52 -150 -119 -37 -27
-56 -34 -74 -30 -23 6 -21 9 29 41 30 19 59 35 65 35 13 0 85 58 85 68 0 5 10
17 23 28 12 10 17 18 10 19 -7 0 -20 -8 -30 -18 -19 -19 -107 -82 -133 -96 -8
-4 -1 4 15 18 17 14 24 26 17 26 -7 0 -10 5 -7 13 4 6 -11 -7 -34 -30 -47 -50
-65 -58 -27 -12 27 32 29 39 26 77 -1 21 44 70 61 65 3 -1 6 4 6 12 0 9 -10 6
-32 -11 l-32 -24 1 33 c1 17 5 38 9 45 5 6 5 12 0 12 -4 0 -9 41 -10 90 -2 80
0 92 18 103 25 15 25 31 0 17 -28 -15 -35 -12 -20 6 12 15 11 16 -10 9 -21 -6
-23 -5 -19 13 6 20 5 21 -20 4 -19 -13 -24 -13 -20 -2 6 19 97 95 104 87 4 -4
-4 -16 -17 -27 -22 -20 -23 -20 -2 -11 12 6 25 16 28 21 3 6 16 10 28 10 l22
-1 -22 -18 c-36 -30 -26 -36 11 -7 19 14 43 26 53 26 11 0 -3 -14 -34 -35 -47
-31 -88 -71 -52 -50 39 23 104 70 107 77 5 11 42 10 42 -1 0 -5 -8 -12 -18
-15 -10 -4 -32 -20 -48 -37 l-29 -32 44 32 c24 17 46 29 49 26 3 -3 3 -6 1 -8
-41 -29 -127 -102 -124 -105 2 -2 31 17 64 43 34 25 61 42 61 36 0 -5 -12 -19
-26 -30 -15 -12 -21 -21 -15 -21 7 0 26 13 42 30 36 35 70 60 83 60 5 0 1 -9
-8 -19 -12 -13 -14 -21 -6 -26 9 -6 35 8 99 52 2 2 2 5 0 8 -3 2 -22 -7 -43
-21 -43 -30 -52 -28 -27 4 40 53 160 64 247 21z"/>
</g>
</svg>
